/* XPM */
static char *result[] = {
/* columns rows colors chars-per-pixel */
"50 50 92 1 ",
"  c #2D2A3E",
". c #352B3C",
"X c #392E3E",
"o c #3A303F",
"O c #322E41",
"+ c #363043",
"@ c #3C3344",
"# c #3F3748",
"$ c #413645",
"% c #453946",
"& c #413749",
"* c #453A4A",
"= c #4A3D4B",
"- c #47424F",
"; c #4D414D",
": c #51434E",
"> c #464554",
", c #4D4956",
"< c #544552",
"1 c #564952",
"2 c #5C4C55",
"3 c #564B59",
"4 c #5C4C59",
"5 c #5F5057",
"6 c #57515E",
"7 c #58515E",
"8 c #614E59",
"9 c #605157",
"0 c #64535A",
"q c #69565D",
"w c #66595F",
"e c #6C5B5E",
"r c #575561",
"t c #575A65",
"y c #5D5B64",
"u c #5D5F69",
"i c #615762",
"p c #625A64",
"a c #6D5C61",
"s c #655E68",
"d c #705E60",
"f c #5F606A",
"g c #65636C",
"h c #6A656D",
"j c #726061",
"k c #6D6972",
"l c #716C73",
"z c #7A6E74",
"x c #6C737A",
"c c #737176",
"v c #7E7474",
"b c #73767C",
"n c #76797E",
"m c #7B797D",
"M c #84797D",
"N c #7B7E81",
"B c #7D8287",
"V c #848385",
"C c #8A8686",
"Z c #888588",
"A c #848A8D",
"S c #898C8D",
"D c #98908F",
"F c #8A8F90",
"G c #8C9394",
"H c #919596",
"J c #959B9A",
"K c #9C9C9A",
"L c #98A29F",
"P c #96A2A1",
"I c #9CA4A2",
"U c #9EA8A6",
"Y c #A3AAA4",
"T c #A0AEAB",
"R c #A8AFAB",
"E c #A5B1AC",
"W c #A8B4AF",
"Q c #ABB5B0",
"! c #ACBAB4",
"~ c #B0BDB6",
"^ c #B2BFB9",
"/ c #B6C5BD",
"( c #BAC5BC",
") c #B8C8BF",
"_ c #BBCBC1",
"` c #BED1C7",
"' c #C0D2C7",
"] c #C4D5CB",
"[ c #C8D8CC",
"{ c #CADED2",
"} c #CDE1D4",
"| c #D3E9DB",
/* pixels */
"||||||||||||||||||||||||||||||||||||||||||||||||||",
"|||||||||||||||||||||||`||||||||||||||||||||||||||",
"||||||||||||||||||||||RG[T||||||||||||||||||||||||",
"||||||||||||||||||||||KA_F||||||||||||||||||||||||",
"|||||||||||||||||||||]MzDa||||||||||||||||||||||||",
"|||||||||||||||||||||^8338||||||||||||||||||||||||",
"|||||||||||||||||||||]3<8N||||||||||||||||||||||||",
"||||||||||||||||||||||k1qK||||||||||||||||||||||||",
"||||||||||||||||||||||k<8K||||||||||||||||||||||||",
"||||||||||||||||||||M_738KQ]||||||||||||||||||||||",
"||||||||||||||||||||P*==8DAR||||||||||||||||||||||",
"|||||||||||||||||||||P&=8ZpZ||||||||||||||||||||||",
"||||||||||||||||||||||@&3p&7|E||||||||||||||||||||",
"||||||||||||||||||||||#&=4&=_6||||||||||||||||||||",
"||||||||||||||||||||[|@&=N#*_=^|||||||||||||||||||",
"|||||||||||||||||||{z|+&=k#=P*H|||||||||||||||||||",
"|||||||||||||||||||U8[+#*N#&N#i|||||||||||||||||||",
"|||||||||||||||||||h=N++&s+&Z#r|||||||||||||||||||",
"||||||||||||||||||)#&=O+&++&g+N{||||||||||||||||||",
"|||||||||||||||||||>&hO &O&&f+g'||||||||||||||||||",
"|||||||||||||||||||O&gO&OO=&u+gZ]|||||||||||||||||",
"||||||||||||||||/}|O+,+= +=&>+gfI|||||||||||||||||",
"||||||||||||||||Z(| + +4OO&# O6&p|||||||||||||||||",
"|||||||||||||||{3J|   &=& &#  +#*)||||||||||||||||",
"|||||||||||||||J*h|   @&# &&+O #=|||||||||||||||||",
"|||||||||||||||N&i`  ++*#O+#O+&&@/||||||||||||||||",
"||||||||||||||K3&sM&&& &+O++  O##g!|||||||||||||||",
"|||||||||||||||N+<&  + &+O++   OXB||||||||||||||||",
"|||||||||||||||N*qdi&  &+ OO     A||||||||||||||||",
"||||||||||||||{3=8aaa4 +OOOO     x||||||||||||||||",
"||||||||||||||Y==28daa<O&+O     of||||||||||||||||",
"||||||||||||||z%=4=aaaa&OO O   +d0)|||||||||||||||",
"||||||||||||||&&%:::deq9X  .    edC|||||||||||||||",
"|||||||||||||T$%$=::1dde;      X5we}||||||||||||||",
"|||||||||||||n$$$====1qqw+     @:deY||||||||||||||",
"||||||||||||{%@@o$=%%=:055o    ;;5ev||||||||||||||",
"||||||||||||c@XXo$$$%%%1111@   -:;00(|||||||||||||",
"||||||||||||&XXXoX$$$$$%::::@  -2;:9w}||||||||||||",
"|||||||||||!..X:1:%oo$$o;:;;;  @::%::v||||||||||||",
"|||||||||||N..=::::$ooooo;;=%%o$:;%;;;)|||||||||||",
"|||||||||||-..X;;;;%XXoooooooooo::;$::F|||||||||||",
"||||||||||/.%%o@;;=%XX.X.....oo.$o995:;|||||||||||",
"|||||||||{-X====$==%$...........oo5952:L||||||||||",
"|||||||||N.$===%%%$%$$oX..........;22::w||||||||||",
"|||||||||o..Xo%%$$$%$$o.oo.........:::;;N|||||||||",
"||||||||Q  ...%$$$$oooo.oooo%;$$=..o;;-%%/||||||||",
"||||||||G......Xo@o@ooo..o...%%;;o..1%%%$F||||||||",
"|||||||||{!!!HN7yyypoooX.o....%gnY|||)FFF)||||||||",
"||||||||||||||||||||'GSAL!`|||||||||||||||||||||||",
"||||||||||||||||||||||||||||||||||||||||||||||||||"
};
