/* XPM */
static char *result[] = {
/* columns rows colors chars-per-pixel */
"50 50 205 2 ",
"   c #07080A",
".  c #0B0C0D",
"X  c #060507",
"o  c #0F100F",
"O  c #10100F",
"+  c #0E0E11",
"@  c #150E17",
"#  c #131314",
"$  c #15151B",
"%  c #1A151B",
"&  c #17191B",
"*  c #1B1A1D",
"=  c #1C1C22",
"-  c #1C1C28",
";  c #221C23",
":  c #2B1725",
">  c #3A162D",
",  c #321F3B",
"<  c #1E2221",
"1  c #1E2128",
"2  c #133E3C",
"3  c #222225",
"4  c #24232B",
"5  c #2A242C",
"6  c #2A2B2C",
"7  c #232A2A",
"8  c #33202E",
"9  c #2B302F",
"0  c #252430",
"q  c #2B2B33",
"w  c #2E2C39",
"e  c #262C37",
"r  c #332E35",
"t  c #332D3B",
"y  c #392631",
"u  c #2D3233",
"i  c #2E3139",
"p  c #233436",
"a  c #333635",
"s  c #33323C",
"d  c #3A353B",
"f  c #363B3B",
"g  c #3A3D3D",
"h  c #44283B",
"j  c #3C423F",
"k  c #312B45",
"l  c #363643",
"z  c #3A3645",
"x  c #3B3A44",
"c  c #3D3C4A",
"v  c #363546",
"b  c #3E3D50",
"n  c #5F1F46",
"m  c #621340",
"M  c #74124B",
"N  c #453342",
"B  c #4B3143",
"V  c #433C4B",
"C  c #4B3E4F",
"Z  c #473946",
"A  c #523A4C",
"S  c #413D54",
"D  c #4C3C53",
"F  c #5A3B56",
"G  c #512945",
"H  c #65254C",
"J  c #6C2A54",
"K  c #792156",
"L  c #623F5D",
"P  c #693457",
"I  c #713056",
"U  c #453B60",
"Y  c #17464C",
"T  c #2C4447",
"R  c #3E4443",
"E  c #374349",
"W  c #3F4255",
"Q  c #275151",
"!  c #2E5F69",
"~  c #3F7E7A",
"^  c #3B6C6A",
"/  c #404544",
"(  c #44434D",
")  c #484B4E",
"_  c #47474C",
"`  c #4A514D",
"'  c #444453",
"]  c #4A4553",
"[  c #454C52",
"{  c #4A4957",
"}  c #4A465A",
"|  c #4C4A5C",
" . c #44445C",
".. c #5C4C5C",
"X. c #564857",
"o. c #555C5B",
"O. c #555659",
"+. c #53434C",
"@. c #66425D",
"#. c #524E61",
"$. c #524E6A",
"%. c #4D5362",
"&. c #575566",
"*. c #5F5D71",
"=. c #4F4B65",
"-. c #644C65",
";. c #714467",
":. c #77456A",
">. c #785976",
",. c #6A5569",
"<. c #5C6463",
"1. c #5E6963",
"2. c #57696B",
"3. c #417471",
"4. c #556F70",
"5. c #686669",
"6. c #68726D",
"7. c #6B6579",
"8. c #756C75",
"9. c #6B7572",
"0. c #6D7872",
"q. c #677979",
"w. c #737D7A",
"e. c #797E7D",
"r. c #707B75",
"t. c #9D3777",
"y. c #B13074",
"u. c #88406D",
"i. c #895377",
"p. c #974279",
"a. c #846E7C",
"s. c #85707E",
"d. c #45807E",
"f. c #79867E",
"g. c #73837C",
"h. c #7E7E83",
"j. c #667F85",
"k. c #9D5884",
"l. c #BE598E",
"z. c #936B8D",
"x. c #9A6F91",
"c. c #90768D",
"v. c #A5668D",
"b. c #A26D90",
"n. c #B76898",
"m. c #A37393",
"M. c #B27F9F",
"N. c #BB7DA2",
"B. c #C14483",
"V. c #C06D9F",
"C. c #C57BA7",
"Z. c #4C8D8C",
"A. c #688F8E",
"S. c #7D8986",
"D. c #7A8788",
"F. c #7C9A97",
"G. c #86898C",
"H. c #90838D",
"J. c #86948C",
"K. c #908C91",
"L. c #879C97",
"P. c gray59",
"I. c #A78199",
"U. c #A7899B",
"Y. c #B5849F",
"T. c #AF929D",
"R. c #93A39A",
"E. c #8195AC",
"W. c #AC8EA1",
"Q. c #B78BA3",
"!. c #A89CA5",
"~. c #BC99AE",
"^. c #B29BA9",
"/. c #B89AB1",
"(. c #9CA7A3",
"). c #9FB0A6",
"_. c #89B1B0",
"`. c #A6A5A9",
"'. c #A0B0A7",
"]. c #AAB1AD",
"[. c #A4B4AC",
"{. c #B7A8B1",
"}. c #BCA8B4",
"|. c #ACBEB3",
" X c #BCB5BA",
".X c #B4BFB8",
"XX c #C498B2",
"oX c #B4C2BB",
"OX c #B6C4BC",
"+X c #A1C6BB",
"@X c #CCB2C1",
"#X c #BACDC1",
"$X c #BDD5CA",
"%X c #BFDCD0",
"&X c #C3C2C2",
"*X c #C9CFCB",
"=X c #C8CAC9",
"-X c #C3D4CC",
";X c #C6DBCE",
":X c #CDDCD3",
">X c #C6DFD2",
",X c #D2DCD5",
"<X c #D2E5DA",
"1X c #D3E9DB",
"2X c #CDE2D8",
/* pixels */
"1X1X1X1X1X1X1X1X1X1X1X1X1X1X1X1X1X1X1X1X1X1X1X1X1X1X1X1X1X1X1X1X1X1X1X1X1X1X1X1X1X1X1X1X1X1X1X1X1X1X",
"1X1X1X1X1X1X1X1X1X1X1X1X1X1X1X1X1X1X1X1X1X1X|.1X1XOX1X1X1X1X1X1X1X1X1X1X1X1X1X1X1X1X1X1X1X1X1X1X1X1X",
"1X1X1X1X1X1X1X1X1X1X1X1X1X1X1X1X1X1X1X1X1X1X0.[.1X'.;X1X1X1X1X1X1X1X1X1X1X1X1X1X1X1X1X1X1X1X1X1X1X1X",
"1X1X1X1X1X1X1X1X1X1X1X1X1X1X1X1X1X1X1X1X1X<XS.J.oX'.f.1X1X1X1X1X1X1X1X1X1X1X1X1X1X1X1X1X1X1X1X1X1X1X",
"1X1X1X1X1X1X1X1X1X1X1X1X1X1X1X1X;X-X1X1X1X1XX.OXoXK.s.1X1X1X1X>X1X1X1X1X1X1X1X1X1X1X1X1X1X1X1X1X1X1X",
"1X1X1X1X1X1X1X1X1X1X1X1X1X1X1X1X X<X1X>X-X1Xk.1X%Xv.Y.,X1X1X1XU.1X1X1X:X1X1X1X1X1X1X1X1X1X1X1X1X1X1X",
"1X1X1X1X1X1X1X1X1X1X1X1X1X1X1X1X X1X1X+X]. XM.1XF.n.M. X1X1X1XU.*X1X:X{.1X1X1X1X1X1X1X1X1X1X1X1X1X1X",
"1X1X1X1X1X1X1X1X1X1X1X1X1X1X1X1X@X:X$X5.1XY.B.^.+.T.a.I.,X1X<Xn.^.1X^.,X1X1X1X1X1X1X1X1X1X1X1X1X1X1X",
"1X1X1X1X1X1X1X1X1X1X1X1X1X1X1X1X@X}.7.a.}.y.p.+.P ,.c.t.B.Y.&XW.1X2Xm.1X1X1X1X1X1X1X1X1X1X1X1X1X1X1X",
"1X1X1X1X1X1X1X1X1X1X1X1X:X&X1X1X:Xi.J >.L P H g K H ;._ @.;.i.1X1XV.,X1X1X1X1X1X1X1X1X1X1X1X1X1X1X1X",
"1X1X1X1X1X1X1X1X1X1X1X1X1X{. X1X<Xj.;.:.B | H h n ..P 7.J X.} ].XXn.1X{.*X1X1X1X1X1X1X1X1X1X1X1X1X1X",
"1X1X1X1X1X1X1X1X1X1X1X1X1X1X^.~.1X2.P B j.( Z h Z C q.E 8 H F &.n.I.W.&X1X1X1X1X1X1X1X1X1X1X1X1X1X1X",
"1X1X1X1X1X1X1X1X1X1X1X1X1X1X1XXXC._ g.&.#.y a h c 2.1.g 5 y G K z.Q.:X1X1X1X1X1X1X1X1X1X1X1X1X1X1X1X",
"1X1X1X1X1X1X1X1X1X1X1X1X1X1X1X1X&XX.l q.o.N +.X.D.[ l Z C -._ N t.&XW.1X1X1X1X1X1X1X1X1X1X1X1X1X1X1X",
"1X1X1X1X1X1X1X1X1X1X1X1X1X1X1X-X%.| R D S.N P g.] ] Z a j h ] 5 d m.:X1X1X1X1X1X1X1X1X1X1X1X1X1X1X1X",
"1X1X1X1X1X1X1X1X1X1X1X1X:XI.W.o.| ( ..E x @.@.{ V W ; ; a &.&.] & oX&X1X:X1X1X1X1X1X1X1X1X1X1X1X1X1X",
"1X1X1X1X1X1X1X1X1X1X1X1X*Xm.B w 5 3 t l h r h h q = % % = #.&.; 5 5 w.1XW.1X1X1X1X1X1X1X1X1X1X1X1X1X",
"1X1X1X1X1X1X1X1X1X1X1X1X1X..S ; ; = d 6 > w 4 y :   O O = } | ( 4 5 $.&.@X1X:X1X1X1X1X1X1X1X1X1X1X1X",
"1X1X1X1X1X1X1X1X1X1X1X1Xc.z % . & u ;X#X@ t i : ; O.;XO.# 4 d ' c ; d V s.~.{.1X1X1X1X1X1X1X1X1X1X1X",
"1X1X1X1X1X1X1X1X1X1X1X#X/ * @ ; a ;X1X1Xq . > # = 1X1Xq # % % % ; & @ 5 f A .X1X1X1X1X1X1X1X1X1X1X1X",
"1X1X1X1X1X1X1X1X1X:X Xe.q q a R.1X1X1X1Xf.$ - $ 9.1X|.$ # & & # % % % + $ d $ |.1X1X1X1X1X1X1X1X1X1X",
"1X1X1X1X1X1X1X1X1X1XoXt l x D.1X1X1X1X1X;X$.F.. J.1X).7 . $ & # & & 0.R $   e 6.1X1X1X1X1X1X1X1X1X1X",
"1X1X1X1X1X1X1X1X1X-X/ 6 5 5 6.|.1X<X1X1X1X< _.& ;X1X5.f -     = z } ).).s 4   o.1X1X1X1X1X1X1X1X1X1X",
"1X1X1X1X1X1X1X1X1Xr.g # 5 a 3 ; r #X1X1X1Xf 1 o.1X1X* q ] _ ' ..; 4 4 0 t ' - 9.1X1X1X1X1X1X1X1X1X1X",
"1X1X1X1X1X1X1X1X1X8.f & s z 0 D.w q 1X1X1X8.d `.1Xf.6 = ' { } T v 5 v + = - 0 ).1X1X1X1X1X1X1X1X1X1X",
"1X1X1X1X1X1X1X1X1Xp Z.t z w G.1X<X<X1X1X1XH.OX`.1X/ o X V  .=.Z.E i ! X v + & -X1X1X1X1X1X1X1X1X1X1X",
"1X1X1X1X1X1X1X1X-Xu u e 5.$X1X1X<X1X1X1X1Xf.1Xe.1X6 o = e V  .v S & 3.Y - + k (.1X1X1X1X1X1X1X1X1X1X",
"1X1X1X1X1X1X1X1X1X` ~ 2.(.1X1X1X1X1X1X1X1X0.;Xf.oX# = W - c b & 0 % ; A.2.k  .1X1X1X1X1X1X1X1X1X1X1X",
"1X1X1X1X1X1X1X1X1X#X` W u OX1X1X1X1X1X1X1X'.f.#X'.4 l l   S x l l & X R.$XL.;X1X1X1X1X1X1X1X1X1X1X1X",
"1X1X1X1X1X1X1X1X1X1X9.= 0.1X1X1X1X1X1X1X1X1X;X1X[.= c s & z s e 5 O . <.1X1X1X1X1X1X1X1X1X1X1X1X1X1X",
"1X1X1X1X1X1X1X1X1X1X2X-X1X1X1X1X1X1X1X1X1X1X1X1XD.; g < 0.&.3 w * 7 5.J 1X1X1X1X1X1X1X1X1X1X1X1X1X1X",
"1X1X1X1X1X1X1X1X1X1X1X1X1X1X1X1X1X1X1X1X1X1X1X1XD.3 u O OXf.6 4 3 / ~.m ;X1X1X1X1X1X1X1X1X1X1X1X1X1X",
"1X1X1X1X1X1X1X1X1X1X1X1X1X1X1X1X1X1X1X1X1X1X1X1XD.% - a 1X).7 l % o.].> ).1X1X1X1X1X1X1X1X1X1X1X1X1X",
"1X1X1X1X1X1X1X1X1X1X1X1X1X1X1X1X1X1X1X1X1X1X1X1Xw.# & j 1XJ.6 r D 0.1X= ].1X1X1X1X1X1X1X1X1X1X1X1X1X",
"1X1X1X1X1X1X1X1X1X1X1X1X1X1X1X1X1X1X1X1X1X1X1X1Xg.O O 0.<Xo.9 < b 6 -XM :X1X1X1X1X1X1X1X1X1X1X1X1X1X",
"1X1X1X1X1X1X1X1X1X1X1X1X1X1X1X1X1X1X1X1X1X1X1X1Xg O o oXoX< 6 * + 6.!.I 1X1X1X1X1X1X1X1X1X1X1X1X1X1X",
"1X1X1X1X1X1X1X1X1X1X1X1X1X1X1X1X1X1X1X1X1X1X1X9.< O * 1XOXO * . = <.] G.1X1X1X1X1X1X1X1X1X1X1X1X1X1X",
"1X1X1X1X1X1X1X1X1X1X1X1X1X1X1X1X1X1X1X1X1X1X[.d O   OX1X1Xf.R.& # & x x ;X1X1X1X1X1X1X1X1X1X1X1X1X1X",
"1X1X1X1X1X1X1X1X1X1X1X1X1X1X1X1X1X1X1X1X1X1XS.* . < 1X1X1X1X1XJ.& . & a J.1X1X1X1X1X1X1X1X1X1X1X1X1X",
"1X1X1X1X1X1X1X1X1X1X1X1X1X1X1X1X1X1X1X1X1X1X1.* . 1.1X1X1X1X;Xb...q . $ ` o.5.1XoX|.1X1X1X1X1X1X1X1X",
"1X1X1X1X1X1X1X1X1X1X1X1X1X1X1X1X1X1X1X1X1X1Xf o - 1X1X1X1X=X-.7.:X;Xo.. . . 1.1X(.OX1X1X1X1X1X1X1X1X",
"1X1X1X1X1X1X1X1X1X1X1X1X1X1X1X1X1X1X1X1X1X1Xj O ) 1X1X1X!., ^.1X1X1X1Xf # $ 9.;X>.1X1X1X1X1X1X1X1X1X",
"1X1X1X1X1X1X1X1X1X1X1X1X1X1X1X1X1X1X1X1X1X1Xo.1 6 1X1X>Xt.P.1X1X1X1X1Xg.6 * J.x.[.1X1X1X1X1X1X1X1X1X",
"1X1X1X1X1X1X1X1X1X1X1X1X1X1X1X1X1X1X1X1X1X1Xo.c e ;X1X).;.<X1X1X1X1X1Xo.z 6 $ !.1X1X1X1X1X1X1X1X1X1X",
"1X1X1X1X1X1X1X1X1X1X1X1X1X1X1X1X1X1X1X1X1X1Xo.b l '.1X1X} /.1X1X1X<X-X( W 3 f 1X1X1X1X1X1X1X1X1X1X1X",
"1X1X1X1X1X1X1X1X1X1X1X1X1X1X1X1X1X1X1X1X1X;X= i s w.1X1X:Xm.%.>.z.q.x.4 i * 9 1X1X1X1X1X1X1X1X1X1X1X",
"1X1X1X1X1X1X1X1X1X1X1X1X1X1X1X1X1X1X1X1X1X).* - = u R.1X1X1X1X1X1XJ.f 1 & o X ;X1X1X1X1X1X1X1X1X1X1X",
"1X1X1X1X1X1X1X1X1X1X1X1X1X1X1X1X1X1X1X1X1X|.3.2 T p ^ ;X1X1X1X1XL.^ 3.Q 3.1.OX1X1X1X1X1X1X1X1X1X1X1X",
"1X1X1X1X1X1X1X1X1X1X1X1X1X1X1X1X1X1X1X1X1X1X#XL.R.R.j.#X1X1X1X1X1X1X1X1X1X1X1X1X1X1X1X1X1X1X1X1X1X1X",
"1X1X1X1X1X1X1X1X1X1X1X1X1X1X1X1X1X1X1X1X1X1X1X1X1X1X1X1X1X1X1X1X1X1X1X1X1X1X1X1X1X1X1X1X1X1X1X1X1X1X"
};
