/* XPM */
static char *result[] = {
/* columns rows colors chars-per-pixel */
"50 50 125 2 ",
"   c #2E2B3E",
".  c #342B3B",
"X  c #382E3E",
"o  c #3C323D",
"O  c #41383B",
"+  c #594F37",
"@  c #5F5A37",
"#  c #5D523A",
"$  c #665B36",
"%  c #60553C",
"&  c #625C39",
"*  c #7F7534",
"=  c #322E41",
"-  c #363043",
";  c #3C3344",
":  c #3F3748",
">  c #413645",
",  c #453946",
"<  c #413749",
"1  c #443A4A",
"2  c #4A3D4B",
"3  c #4C4142",
"4  c #47424F",
"5  c #4E414D",
"6  c #524645",
"7  c #51434E",
"8  c #464554",
"9  c #4D4956",
"0  c #544552",
"q  c #564A53",
"w  c #5C4C55",
"e  c #564B59",
"r  c #5C4C59",
"t  c #5F5057",
"y  c #57515E",
"u  c #58515E",
"i  c #675D42",
"p  c #6A5E42",
"a  c #614E59",
"s  c #605157",
"d  c #64535A",
"f  c #6A545D",
"g  c #66595F",
"h  c #6D5B5E",
"j  c #7C6F44",
"k  c #575561",
"l  c #575A65",
"z  c #5D5B64",
"x  c #5D5F69",
"c  c #615762",
"v  c #625A64",
"b  c #6C5B61",
"n  c #655E68",
"m  c #705E60",
"M  c #5F606A",
"N  c #65636C",
"B  c #6A656D",
"V  c #736162",
"C  c #6D6972",
"Z  c #716C73",
"A  c #7A6E74",
"S  c #6C737A",
"D  c #737176",
"F  c #7E7474",
"G  c #73767C",
"H  c #76797E",
"J  c #7B797D",
"K  c #897D3A",
"L  c #84797D",
"P  c #958A2F",
"I  c #928737",
"U  c #9B8F33",
"Y  c #A09436",
"T  c #A0933F",
"R  c #AAA12C",
"E  c #B1A62F",
"W  c #B7AE2B",
"Q  c #BFB237",
"!  c #C4BA28",
"~  c #CABE2C",
"^  c #C3B539",
"/  c #CEC426",
"(  c #CEC22F",
")  c #D4C929",
"_  c #DCD125",
"`  c #E7DC23",
"'  c #E8DD23",
"]  c #F3E821",
"[  c #7B7E81",
"{  c #7D8287",
"}  c #848385",
"|  c #8A8686",
" . c #888588",
".. c #848A8D",
"X. c #898C8D",
"o. c #98908F",
"O. c #8A8F90",
"+. c #8C9394",
"@. c #919596",
"#. c #959B9A",
"$. c #9C9C9A",
"%. c #98A29F",
"&. c #96A2A1",
"*. c #9CA4A2",
"=. c #9EA8A6",
"-. c #A3AAA4",
";. c #A0AEAB",
":. c #A8AFAB",
">. c #A5B1AC",
",. c #A8B4AF",
"<. c #ABB5B0",
"1. c #ACBAB4",
"2. c #B0BDB6",
"3. c #B2BFB9",
"4. c #B6C5BD",
"5. c #BAC5BC",
"6. c #B8C8BF",
"7. c #BBCBC1",
"8. c #BED1C7",
"9. c #C0D2C7",
"0. c #C4D5CB",
"q. c #C8D8CC",
"w. c #CADED2",
"e. c #CDE1D4",
"r. c #D3E9DB",
/* pixels */
"r.r.r.r.r.r.r.r.r.r.r.r.r.r.r.r.r.r.r.r.r.r.r.r.r.r.r.r.r.r.r.r.r.r.r.r.r.r.r.r.r.r.r.r.r.r.r.r.r.r.",
"r.r.r.r.r.r.r.r.r.r.r.r.r.r.r.r.r.r.r.r.r.r.r.8.r.r.r.r.r.r.r.r.r.r.r.r.r.r.r.r.r.r.r.r.r.r.r.r.r.r.",
"r.r.r.r.r.r.r.r.r.r.r.r.r.r.r.r.r.r.r.r.r.r.:.+.q.=.r.r.r.r.r.r.r.r.r.r.r.r.r.r.r.r.r.r.r.r.r.r.r.r.",
"r.r.r.r.r.r.r.r.r.r.r.r.r.r.r.r.r.r.r.r.r.r.$. .7.O.r.r.r.r.r.r.r.r.r.r.r.r.r.r.r.r.r.r.r.r.r.r.r.r.",
"r.r.r.r.r.r.r.r.r.r.r.r.r.r.r.r.r.r.r.r.r.0.L A o.b r.r.r.r.r.r.r.r.r.r.r.r.r.r.r.r.r.r.r.r.r.r.r.r.",
"r.r.r.r.r.r.r.r.r.r.r.r.r.r.r.r.r.r.r.r.r.3.a e e c r.r.r.r.r.r.r.r.r.r.r.r.r.r.r.r.r.r.r.r.r.r.r.r.",
"r.r.r.r.r.r.r.r.r.r.r.r.r.r.r.r.r.r.r.r.r.0.e 0 a J r.r.r.r.r.r.r.r.r.r.r.r.r.r.r.r.r.r.r.r.r.r.r.r.",
"r.r.r.r.r.r.r.r.r.r.r.r.r.r.r.r.r.r.r.r.r.r.C q b $.r.r.r.r.r.r.r.r.r.r.r.r.r.r.r.r.r.r.r.r.r.r.r.r.",
"r.r.r.r.r.r.r.r.r.r.r.r.r.r.r.r.r.r.r.r.r.r.B e a $.r.r.r.r.r.r.r.r.r.r.r.r.r.r.r.r.r.r.r.r.r.r.r.r.",
"r.r.r.r.r.r.r.r.r.r.r.r.r.r.r.r.r.r.r.r.L 7.u e a $.,.0.r.r.r.r.r.r.r.r.r.r.r.r.r.r.r.r.r.r.r.r.r.r.",
"r.r.r.r.r.r.r.r.r.r.r.r.r.r.r.r.r.r.r.r.&.1 2 2 a $. .:.r.r.r.r.r.r.r.r.r.r.r.r.r.r.r.r.r.r.r.r.r.r.",
"r.r.r.r.r.r.r.r.r.r.r.r.r.r.r.r.r.r.r.r.r.&.< 2 w  .z  .r.r.r.r.r.r.r.r.r.r.r.r.r.r.r.r.r.r.r.r.r.r.",
"r.r.r.r.r.r.r.r.r.r.r.r.r.r.r.r.r.r.r.r.r.r.- 1 0 c < u r.:.r.r.r.r.r.r.r.r.r.r.r.r.r.r.r.r.r.r.r.r.",
"r.r.r.r.r.r.r.r.r.r.r.r.r.r.r.r.r.r.r.r.r.r.: < 2 u < 2 7.u r.r.r.r.r.r.r.r.r.r.r.r.r.r.r.r.r.r.r.r.",
"r.r.r.r.r.r.r.r.r.r.r.r.r.r.r.r.r.r.r.r.q.r.; < e A : 2 7.2 3.r.r.r.r.r.r.r.r.r.r.r.r.r.r.r.r.r.r.r.",
"r.r.r.r.r.r.r.r.r.r.r.r.r.r.r.r.r.r.r.e.A r.- < 2 C ; 2 &.1 @.r.r.r.r.r.r.r.r.r.r.r.r.r.r.r.r.r.r.r.",
"r.r.r.r.r.r.r.r.r.r.r.r.r.r.r.r.r.r.r.=.r q.- : 1 [ - 1 [ : c r.r.r.r.r.r.r.r.r.r.r.r.r.r.r.r.r.r.r.",
"r.r.r.r.r.r.r.r.r.r.r.r.r.r.r.r.r.r.r.N 0 J - - < n - < ..: c r.r.r.r.r.r.r.r.r.r.r.r.r.r.r.r.r.r.r.",
"r.r.r.r.r.r.r.r.r.r.r.r.r.r.r.r.r.r.6.: < 1 = - < - - < M : B r.r.r.r.r.r.r.r.r.r.r.r.r.r.r.r.r.r.r.",
"r.r.r.r.r.r.r.r.r.r.r.r.r.r.r.r.r.r.r.9 < B = = < = 1 : M - N 0.r.r.r.r.r.r.r.r.r.r.r.r.r.r.r.r.r.r.",
"r.r.r.r.r.r.r.r.r.r.r.r.r.r.r.r.r.r.r.= : N = < = = 2 < x - N ..0.r.r.r.r.r.r.r.r.r.r.r.r.r.r.r.r.r.",
"r.r.r.r.r.r.r.r.r.r.r.r.r.r.r.r.4.e.r.= - 9 - 2   - 2 < 8 = N M *.r.r.r.r.r.r.r.r.r.r.r.r.r.r.r.r.r.",
"r.r.r.r.r.r.r.r.r.r.r.r.r.r.r.r. .7.r.  =   - r = = < :   = k < v r.r.r.r.r.r.r.r.r.r.r.r.r.r.r.r.r.",
"r.r.r.r.r.r.r.r.r.r.r.r.r.r.r.e.2 $.r.= = = - 2 < = < :     - : 1 7.r.r.r.r.r.r.r.r.r.r.r.r.r.r.r.r.",
"r.r.r.r.r.r.r.r.r.r.r.r.r.r.r.#.1 B r.  = = - : :   < < - =   < 2 r.r.r.r.r.r.r.r.r.r.r.r.r.r.r.r.r.",
"r.r.r.r.r.r.r.r.r.r.r.r.r.r.r.H 1 c 7.= = - - 1 :   ; : = - < < 1 1.r.r.r.r.r.r.r.r.r.r.r.r.r.r.r.r.",
"r.r.r.r.r.r.r.r.r.r.r.r.r.r.$.e : n [ < : : = < -   - -       < : B 1.r.r.r.r.r.r.r.r.r.r.r.r.r.r.r.",
"r.r.r.r.r.r.r.r.r.r.r.r.r.r.r.{ - 0 <     = . > - = - -       = - { r.r.r.r.r.r.r.r.r.r.r.r.r.r.r.r.",
"r.r.r.r.r.r.r.r.r.r.r.r.r.r.r.} 1 f V g ,   = - - = - -         . ..r.r.r.r.r.r.r.r.r.r.r.r.r.r.r.r.",
"r.r.r.r.r.r.r.r.r.r.r.r.r.r.q.q 5 r h h h 0 % W ` ' W $           S r.r.r.r.r.r.r.r.r.r.r.r.r.r.r.r.",
"r.r.r.r.r.r.r.r.r.r.r.r.r.r.-.2 2 q s V b ^ ] ] ] ] ] ] Y =     ; l r.r.r.r.r.r.r.r.r.r.r.r.r.r.r.r.",
"r.r.r.r.r.r.r.r.r.r.r.r.r.r.D , 2 0 q d ^ ] ] ] ] ] ] ] ] Y   - h d 7.r.r.r.r.r.r.r.r.r.r.r.r.r.r.r.",
"r.r.r.r.r.r.r.r.r.r.r.r.r.r.> , , 7 7 j ] ] ] ] ] ] ] ] ] ] %   h m | r.r.r.r.r.r.r.r.r.r.r.r.r.r.r.",
"r.r.r.r.r.r.r.r.r.r.r.r.r.>.> > , 2 7 ) ] ] ] ] ] ] ] ] ] ] / - w h m e.r.r.r.r.r.r.r.r.r.r.r.r.r.r.",
"r.r.r.r.r.r.r.r.r.r.r.r.r.H ; : > , p ] ] ] ] ] ] ] ] ] ] ] ] & 6 m h -.r.r.r.r.r.r.r.r.r.r.r.r.r.r.",
"r.r.r.r.r.r.r.r.r.r.r.r.w.2 ; o X , I ] ] ] ] ] ] ] ] ] ] ] ] T 5 w f L r.r.r.r.r.r.r.r.r.r.r.r.r.r.",
"r.r.r.r.r.r.r.r.r.r.r.r.G o - o X ; E ] ] ] ] ] ] ] ] ] ] ] ] ^ 7 5 d d 5.r.r.r.r.r.r.r.r.r.r.r.r.r.",
"r.r.r.r.r.r.r.r.r.r.r.r.> X X X > o ! ] ] ] ] ] ] ] ] ] ] ] ] ( t 2 7 s g q.r.r.r.r.r.r.r.r.r.r.r.r.",
"r.r.r.r.r.r.r.r.r.r.r.1.. . o 0 7 7 ~ ] ] ] ] ] ] ] ] ] ] ] ] ~ 7 5 , 7 0 J r.r.r.r.r.r.r.r.r.r.r.r.",
"r.r.r.r.r.r.r.r.r.r.r.{ . . , 7 7 7 ~ ] ] ] ] ] ] ] ] ] ] ] ] ~ 7 7 , 5 5 7 6.r.r.r.r.r.r.r.r.r.r.r.",
"r.r.r.r.r.r.r.r.r.r.r.4 . . o 5 7 2 Y ] ] ] ] ] ] ] ] ] ] ] ] P 7 7 2 , 7 7 X.r.r.r.r.r.r.r.r.r.r.r.",
"r.r.r.r.r.r.r.r.r.r.4.. , , ; ; 2 2 K ] ] ] ] ] ] ] ] ] ] ] ] K > o a d t 7 5 r.r.r.r.r.r.r.r.r.r.r.",
"r.r.r.r.r.r.r.r.r.q.8 X 2 3 2 2 > 2 6 ] ] ] ] ] ] ] ] ] ] ] ] O X o a s t q 0 %.r.r.r.r.r.r.r.r.r.r.",
"r.r.r.r.r.r.r.r.r.[ . > 2 , 2 , , , , E ] ] ] ] ] ] ] ] ] ] R . . . 6 q q q q u r.r.r.r.r.r.r.r.r.r.",
"r.r.r.r.r.r.r.r.r.o . . X ; , , > > > 3 ` ] ] ] ] ] ] ] ] ' o . . . . 7 7 7 5 5 J r.r.r.r.r.r.r.r.r.",
"r.r.r.r.r.r.r.r.1.. . . . X > > > > > o % ` ] ] ] ] ] ] ' p , , 2 . . ; 5 3 5 2 , 4.r.r.r.r.r.r.r.r.",
"r.r.r.r.r.r.r.r.+.. . . . . . X o ; ; o o # _ ] ] ] ] _ + , , 2 2 X . . 9 , , , , O.r.r.r.r.r.r.r.r.",
"r.r.r.r.r.r.r.r.r.w.1.1.1.+.{ u z z z z o . o $ P P $ . . . , N H :.r.r.r.6.O.O.X.6.r.r.r.r.r.r.r.r.",
"r.r.r.r.r.r.r.r.r.r.r.r.r.r.r.r.r.r.r.r.8.+.....%.1.8.r.r.r.r.r.r.r.r.r.r.r.r.r.r.r.r.r.r.r.r.r.r.r.",
"r.r.r.r.r.r.r.r.r.r.r.r.r.r.r.r.r.r.r.r.r.r.r.r.r.r.r.r.r.r.r.r.r.r.r.r.r.r.r.r.r.r.r.r.r.r.r.r.r.r."
};
