/* XPM */
static char *result[] = {
/* columns rows colors chars-per-pixel */
"50 50 227 2 ",
"   c #263F37",
".  c #4C182D",
"X  c #47162C",
"o  c #531A2D",
"O  c #591C2D",
"+  c #5B1C32",
"@  c #651D3D",
"#  c #562B2D",
"$  c #553739",
"%  c #50372E",
"&  c #6D203E",
"*  c #74233E",
"=  c #7B273E",
"-  c #742A39",
";  c #73333A",
":  c #6C3533",
">  c #335F29",
",  c #314F33",
"<  c #38632B",
"1  c #4A542F",
"2  c #525C2F",
"3  c #4A5430",
"4  c #545334",
"5  c #6F4F36",
"6  c #47692C",
"7  c #567936",
"8  c #567834",
"9  c #526C32",
"0  c #233C42",
"q  c #2C3E45",
"w  c #373D50",
"e  c #4A2844",
"r  c #4C3044",
"t  c #4E2352",
"y  c #5A275A",
"u  c #592F45",
"i  c #64284A",
"p  c #7A2943",
"a  c #66295E",
"s  c #5D2C62",
"d  c #642A65",
"f  c #2E424C",
"g  c #284448",
"h  c #30444B",
"j  c #314B4C",
"k  c #395849",
"l  c #345A54",
"z  c #364A53",
"x  c #3B684E",
"c  c #594945",
"v  c #725155",
"b  c #4D7548",
"n  c #475D63",
"m  c #5A7774",
"M  c #4E6668",
"N  c #6E736A",
"B  c #BE311A",
"V  c #9C2225",
"C  c #9D232B",
"Z  c #822A3E",
"A  c #8B2C3E",
"S  c #9B2634",
"D  c #8A3732",
"F  c #A2242C",
"G  c #A92728",
"H  c #B52923",
"J  c #BB2B23",
"K  c #B5262A",
"L  c #B8362C",
"P  c #A72934",
"I  c #B72A33",
"U  c #B23934",
"Y  c #C42C28",
"T  c #CB3325",
"R  c #CC3C2D",
"E  c #C5372B",
"W  c #DB3D2A",
"Q  c #D73929",
"!  c #C42433",
"~  c #C43D32",
"^  c #CB3C31",
"/  c #AE4239",
"(  c #BC4234",
")  c #BD493B",
"_  c #BC433A",
"`  c #AF4C2F",
"'  c #C5432C",
"]  c #DE4728",
"[  c #DF5324",
"{  c #C34334",
"}  c #CD4435",
"|  c #CB4D3D",
" . c #CA4936",
".. c #D14334",
"X. c #DA4936",
"o. c #C3513E",
"O. c #CA5738",
"+. c #D45336",
"@. c #D85A3A",
"#. c #E34E2C",
"$. c #E34627",
"%. c #E2572A",
"&. c #E14E33",
"*. c #E35532",
"=. c #E45A37",
"-. c #DE6439",
";. c #CD6532",
":. c #E4642B",
">. c #EB772B",
",. c #E56333",
"<. c #E2653D",
"1. c #E86639",
"2. c #EB7235",
"3. c #EB7938",
"4. c #983648",
"5. c #8B3247",
"6. c #A32443",
"7. c #9C4051",
"8. c #B74945",
"9. c #BD5341",
"0. c #AF4E51",
"q. c #8E596E",
"w. c #896E74",
"e. c #AE6D6F",
"r. c #C55844",
"t. c #CA5644",
"y. c #D85842",
"u. c #C95D51",
"i. c #E55E45",
"p. c #CD6A4E",
"a. c #CB664B",
"s. c #D36446",
"d. c #D36B4D",
"f. c #D86848",
"g. c #D6714D",
"h. c #CC6C52",
"j. c #CB655A",
"k. c #CD7254",
"l. c #CC755B",
"z. c #D37252",
"x. c #D67A56",
"c. c #D56A58",
"v. c #E96947",
"b. c #EF7643",
"n. c #EA7A48",
"m. c #E97B56",
"M. c #F07D4B",
"N. c #D87B65",
"B. c #C27A74",
"V. c #CA7A6D",
"C. c #6A822D",
"Z. c #688636",
"A. c #5C8256",
"S. c #6C8E52",
"D. c #739672",
"F. c #849631",
"G. c #ED842D",
"H. c #F3972E",
"J. c #EC8033",
"K. c #F18D35",
"L. c #F0803C",
"P. c #F2973A",
"I. c #E99134",
"U. c #F2A531",
"Y. c #849D5A",
"T. c #96A344",
"R. c #88AB75",
"E. c #E8885B",
"W. c #EC8B4F",
"Q. c #CA8477",
"!. c #D28C76",
"~. c #D68669",
"^. c #E9966D",
"/. c #F3A26C",
"(. c #E9A675",
"). c #F8B87C",
"_. c #EDA24F",
"`. c #90728F",
"'. c #B07F89",
"]. c #788C8C",
"[. c #6D9186",
"{. c #7DA182",
"}. c #908B8F",
"|. c #A9888D",
" X c #A3889D",
".X c #B59493",
"XX c #8AA49D",
"oX c #94B190",
"OX c #ACB99F",
"+X c #A799A3",
"@X c #B09FA0",
"#X c #99B6A7",
"$X c #95ADA7",
"%X c #A4BDB2",
"&X c #B7B5B4",
"*X c #AFACAA",
"=X c #CB938A",
"-X c #D2A895",
";X c #DEB09C",
":X c #C8A298",
">X c #E5AF85",
",X c #CCBAAC",
"<X c #D2BFB0",
"1X c #C9B6AA",
"2X c #A6C49E",
"3X c #B5C7B9",
"4X c #B7D1B4",
"5X c #A9C4AF",
"6X c #FBC686",
"7X c #F1CE9A",
"8X c #C8C5BB",
"9X c #D3CABB",
"0X c #D5C5B4",
"qX c #DAD4B7",
"wX c #F8D2AD",
"eX c #B9C7C2",
"rX c #BBD3C6",
"tX c #C7D3CA",
"yX c #D3DCCC",
"uX c #D1D3C4",
"iX c #CCDED3",
"pX c #C7DED1",
"aX c #D2DED0",
"sX c #C5CFC7",
"dX c #C9E0D1",
"fX c #D3E9DB",
"gX c #D4E2D2",
/* pixels */
"fXfXfXfXfXfXfXfXfXfXfXfXfXfXfXfXfXfXfXfXfXfXfXfXfXfXfXfXfXfXfXfXfXfXfXfXfXfXfXfXfXfXfXfXfXfXfXfXfXfX",
"fXfXfXfXfXfXfXfXfXfXfXfXfXfXfXfXfXfXfXfXfXfXfXfXfXfXfXfXfXfXfXfXfXfXfXfXfXfXfXfXfXfXfXfXfXfXfXfXfXfX",
"fXfXfXfXfXfXfXfXfXfXfXfXfXfXfXfXfXfXfXfXfXfXfXfXfXfXfXfXfXfXfXfXfXfXfXfXfXfXfXfXfXfXfXfXfXfXfXfXfXfX",
"fXfXfXfXfXfXfXfXfXfXfXfXfXfXfXfXiXeXfXfXuXfXfXfXfXfXfXfXfXfXfXfXfXfXfXfXfXfXfXfXfXfXfXfXfXfXfXfXfXfX",
"fXfXfXfXfXfXfXfXfXfXfXfXfXfXfXfX`.d q._.H.7XaX;XgXfXfXfXfXfXfXfXfXfXfXfXfXfXfXfXfXfXfXfXfXfXfXfXfXfX",
"fXfXfXfXfXfXfXfXfXfXfXfXfXfXfXfX@X4.3.2.K.P.>Xv.^.fXfXfXfXfXfXfXfXfXfXfXfXfXfXfXfXfXfXfXfXfXfXfXfXfX",
"fXfXfXfXfXfXfXfXfXfXfXfXfXfX8XaXi.v.b.Q Q *.3.v.&.uXgXqXqXqXfXfXfXfXfXfXfXfXfXfXfXfXfXfXfXfXfXfXfXfX",
"fXfXfXfXfXfXfXfXfXfXfXfXiX`.a y.X.v.i.Q D L Q ] 1.W.3.K.P.W.<XfXfXfXfXfXfXfXfXfXfXfXfXfXfXfXfXfXfXfX",
"fXfXfXfXfXfXfXfXfXfXfXfXfX`.4.i.*.v.@.U Q.e.V H >.-.>.U.I.W.f.fXfXfXfXfXfXfXfXfXfXfXfXfXfXfXfXfXfXfX",
"fXfXfXfXfXfXfXfXfXfXfXfXfXsXQ i.X.} -.-.k..Xe.;.` O.' U I.-.*.fXfXfXfXfXfXfXfXfXfXfXfXfXfXfXfXfXfXfX",
"fXfXfXfXfXfXfXfXfXfXfXfXfXuXY v.y.@.+.f.W._.W.G.H.I.[ ` L #.#.fXfXfXfXfXfXfXfXfXfXfXfXfXfXfXfXfXfXfX",
"fXfXfXfXfXfXfXfXfXfXfXfXfX'.Y i.m.E.f.<.;.-.>.>.H.P.>.G.=.#.$.fXfXfXfXfXfXfXfXfXfXfXfXfXfXfXfXfXfXfX",
"fXfXfXfXfXfXfXfXfXfXfXfXfXe.^ ..i.v.E.{ 3.#.#.] K.K.>.L.#.$.W fXfXfXfXfXfXfXfXfXfXfXfXfXfXfXfXfXfXfX",
"fXfXfXfXfXfXfXfXfXfXfXfXfX,X^ } ^ i.E.( R v.E.d.%.>.L.2.$.$.Q fXfXfXfXfXfXfXfXfXfXfXfXfXfXfXfXfXfXfX",
"fXfXfXfXfXfXfXfXfXfXfXfXfX,XE } ~ 1./.f.| >X7X).E.#.v.&.W Q ^ fXfXfXfXfXfXfXfXfXfXfXfXfXfXfXfXfXfXfX",
"fXfXfXfXfXfXfXfXfXfXfXfXfXfX^ ^ E 1.m.M./.).).).wXx.Q Q Q Q N.+XdXfXfXfXfXfXfXfXfXfXfXfXfXfXfXfXfXfX",
"fXfXfXfXfXfXfXfXfXfXfXfXfXfXt.R ~ v.+.@.v./.).).7X/. .m. .r.(.4. XfXfXfXfXfXfXfXfXfXfXfXfXfXfXfXfXfX",
"fXfXfXfXfXfXfXfXfXfXfXfXfXfXQ.~ ~ +.@.y.f.n./.).6X6X~.wXh.k.E.G.,.qXrXfXfXfXfXfXfXfXfXfXfXfXfXfXfXfX",
"fXfXfXfXfXfXfXfXfXfXfXfXfXfX0XR ~ ( | t.f.g.x./.6X).l.l.k.k...G.%.:.w.fXfXfXfXfXfXfXfXfXfXfXfXfXfXfX",
"fXfXfXfXfXfXfXfXfXfXfXfXfXfXfXj.~ { ( ( ( L o.p.^.(.k.k.k.O.Q 2.$.2.N.fXfXfXfXfXfXfXfXfXfXfXfXfXfXfX",
"fXfXfXfXfXfXfXfXfXfXfXfXfXfXfX9X..) ) ) o.L { +.' a.x.k.9.' #.[ *.%.:.@XfXfXfXfXfXfXfXfXfXfXfXfXfXfX",
"fXfXfXfXfXfXfXfXfXfXfXfXfXfXfXfXX.t.) r.t.t.<.L.H.;.' ' { +.1.=.=.=.b.V.fXfXfXfXfXfXfXfXfXfXfXfXfXfX",
"fXfXfXfXfXfXfXfXfXfXfXfXfXfXgXfXv. .s.s.d.d.s.J.U.H.-. .} <.v.1.#.3.M.^ uXfXfXfXfXfXfXfXfXfXfXfXfXfX",
"fXfXfXfXfXfXfXfXfXfXfXfXaX(.W.>Xm.r.j.p.d.d.d.O.3.2. .+.<.b.@.] ,.%.2.~ 4.tXfXiXfXfXfXfXfXfXfXfXfXfX",
"fXfXfXfXfXfXfXfXfXfXfXyXN.) @.@.i.u.C r.d.d.d.z.<.@.~ ..=.v.@.=.:.2.2.} L yXiXB.8.V.*XfXfXfXfXfXfXfX",
"fXfXfXfXfXfXfXfXfXfXfX9Xp 8.0X0X^ e.F P d.z.z.z.b.<.t.} } } R X.[ %.L.L ~ 0..XT T | !.fXfXfXfXfXfXfX",
"fXfXfXfXfXfXfXfXfXfXfX;Xy.t.fXfXuX0.V C U z.c.v.v.v.y.x.p.s.o...3.2.-.o.E ~ I E | aXfXfXfXfXfXfXfXfX",
"fXfXfXfXfXfXfXfXfXfXfX=X=Xq.tXfXiXV C | } y.v.i.y.y.s.x.x.z.) ..[ :.@.g.f.T Y T -XsXfXfXfXfXfXfXfXfX",
"fXfXfXfXfXfXfXfXfXfXfX].w ].fXfXsXC K y.....{ z.x.x.z.k.p.a.) L ,.:.@.x.g.@.Q j.#X, ].eXrX%X[.[.fXfX",
"fXfXfXfXfXfXoXb S.%Xm q q q $XfX1XV ~ ^ } ^ P / z.k.z.p.a.r.=XR X.#.} 0X-X!.=XfXD., g f g j l #XfXfX",
"fXfXfXfXfXD.> 9 Z.k f f w q z eXuXP S 5.U ~ F V 8.~.p.p.k.8XfXJ T Y $.c.fXfXfXfXb 6 0 h 0 z l dXfXfX",
"fXfXfXfXoX> 6 8 k j f f f f w n fXuX4.S S = C / pXfXuX9XgXgX8XH H J #.g.fXfXfXfX< 9 , h 0 l D.fXfXfX",
"fXfXfX4XC.< 7 l g j m $XpXfXfXeXXXfXaXe.C F H B.fXfXfXfXfXfX,XH H J $.=XfXfXfXpX> 6 m j g l 5XfXfXfX",
"fXfXfXY.C.C.x l A.5XfXfXfXfXfXfX%XrXfXfX= V H H 0XfXfXfXfXfXgX9.H J T uXfXfXfX5X> oX%Xg 0 m fXfXfXfX",
"fXfXfXT.Z.A.l {.fXfXfXfXfXfXfXfXfXXXiXXX].F K J ( yXfXfXfXfXfXdXU B u.gXfXpXfXXXoXfXpXg g %XfXfXfXfX",
"fXfXfXF.Z.M 5XfXfXfXfXfXfXfXfXfXfX$X%Xn N K Y J B 1XfXfXfXfXfXfX=XY Q.fXfXsXXXR.fXfXfXg M fXfXfXfXfX",
"fXfX4XZ.b rXfXfXfXfXfXfXfXfX+X0.=XaXv S K K J B o.fXfXfXfXfXfXfX9.Y R 9XfXfXm D.fXfXfX0 $XfXfXfXfXfX",
"fXfX2Xx rXfXfXfXfXfXfXfXfX X6.5.6.G ! ! ! H I 1XfXfXfXfXfXfXfX:XG J T } :XyXm D.rXfXfXn fXfXfXfXfXfX",
"fXfXD.#XfXfXfXfXfXfXfXfX`.y s s a d 6.! ! H w.R.oXoX2X4X4X4X@XG G G I H T q.n k %XfXfXXXfXfXfXfXfXfX",
"fXfX%XfXfXfXfX#XR.D.S.9 $ e e t t t i ! Y D 2 8 Z.8 8 8 8 c s t G t d S S y y   $XfXfXfXfXfXfXfXfXfX",
"fXfXfXfXfXfXgX|.D D 5 5 5 5 5 $ 4 2 2 2 2 2 1 2 1 1 3 3 3 e r r - e e i % u c e v qXfXfXfXfXfXfXfXfX",
"fXfXfXfXfXfXfXiX5.5.Z Z A Z Z = - O O # # # # # # # % % : $ : ; : ; ; p Z Z Z 5.4XfXfXfXfXfXfXfXfXfX",
"fXfXfXfXfXfXfXfX|.- = = = = = = O o o o o o o o o o o o p = = = = = = = = = p 8XfXfXfXfXfXfXfXfXfXfX",
"fXfXfXfXfXfXfXfXdX*X|.q.p & - & o o o o o o o o o o . + * * * & * * * * * * @XfXfXfXfXfXfXfXfXfXfXfX",
"fXfXfXfXfXfXfXfXfXfXfXfXfX3X*X|.v u X . . . . X . X X + p @ @ p & & & & * @XfXfXfXfXfXfXfXfXfXfXfXfX",
"fXfXfXfXfXfXfXfXfXfXfXfXfXfXfXfXfXfXfX%X*X`.w.v v X X @ @ @ @ @ @ @ @ @ }.fXfXfXfXfXfXfXfXfXfXfXfXfX",
"fXfXfXfXfXfXfXfXfXfXfXfXfXfXfXfXfXfXfXfXfXfXfXfXfXfXfXfXsX&X&X&X&X&X,XfXfXfXfXfXfXfXfXfXfXfXfXfXfXfX",
"fXfXfXfXfXfXfXfXfXfXfXfXfXfXfXfXfXfXfXfXfXfXfXfXfXfXfXfXfXfXfXfXfXfXfXfXfXfXfXfXfXfXfXfXfXfXfXfXfXfX",
"fXfXfXfXfXfXfXfXfXfXfXfXfXfXfXfXfXfXfXfXfXfXfXfXfXfXfXfXfXfXfXfXfXfXfXfXfXfXfXfXfXfXfXfXfXfXfXfXfXfX",
"fXfXfXfXfXfXfXfXfXfXfXfXfXfXfXfXfXfXfXfXfXfXfXfXfXfXfXfXfXfXfXfXfXfXfXfXfXfXfXfXfXfXfXfXfXfXfXfXfXfX"
};
